<svg xmlns="http://www.w3.org/2000/svg" viewBox="0 0 500 500"><g id="freepik--background-complete--inject-1"><path d="M66.8825,34.2902c1.0204,9.9407,5.6442,338.0572,5.6442,338.0572l208.68259-.7525L77.3479,34.2902h-10.4654Z" style="fill:#f5f5f5;"></path><path d="M418.31239,35.2156c-1.0203,9.9407,40.2417,339.5732,40.2417,339.5732l-233.16669-6.1261L403.832,35.2156h14.48039Z" style="fill:#f5f5f5;"></path><polygon points="402.72149 121.242 404.51139 122.2484 402.69829 123.2125 401.69169 125.0026 400.72759 123.1894 398.93759 122.1829 400.75079 121.2188 401.75719 119.4287 402.72149 121.242" style="fill:#ebebeb;"></polygon><polygon points="365.67239 90.2117 367.46229 91.2181 365.64909 92.1822 364.64259 93.9723 363.67849 92.1591 361.88849 91.1526 363.70169 90.1884 364.70809 88.3984 365.67239 90.2117" style="fill:#ebebeb;"></polygon><polygon points="176.3552 56.4624 178.2337 57.5186 176.3308 58.5304 175.2745 60.409 174.2627 58.5062 172.3842 57.4498 174.287 56.438 175.3432 54.5594 176.3552 56.4624" style="fill:#ebebeb;"></polygon><polygon points="317.95379 174.6644 320.67279 176.1933 317.91849 177.6578 316.38959 180.3769 314.92509 177.6227 312.206 176.0937 314.96019 174.6292 316.48919 171.9102 317.95379 174.6644" style="fill:#e0e0e0;"></polygon><polygon points="186.818 171.9623 190.887 174.2502 186.7653 176.442 184.4772 180.5111 182.2856 176.3893 178.2165 174.1013 182.3382 171.9095 184.6263 167.8405 186.818 171.9623" style="fill:#e0e0e0;"></polygon><polygon points="128.3868 88.9718 132.4558 91.2597 128.334 93.4515 126.0459 97.5206 123.8543 93.3988 119.7852 91.1108 123.907 88.919 126.195 84.85 128.3868 88.9718" style="fill:#e0e0e0;"></polygon><polygon points="307.624 53.5376 309.50249 54.5938 307.59969 55.6057 306.54329 57.4842 305.53149 55.5814 303.653 54.525 305.55589 53.5132 306.61219 51.6348 307.624 53.5376" style="fill:#ebebeb;"></polygon><polygon points="176.3059 108.7136 178.0958 109.72 176.2826 110.6842 175.2761 112.4742 174.312 110.661 172.522 109.6545 174.3352 108.6903 175.3417 106.9004 176.3059 108.7136" style="fill:#ebebeb;"></polygon><polygon points="331.82859 129.2192 334.96249 130.9815 331.78789 132.6694 330.02569 135.8033 328.33779 132.6289 325.20389 130.8667 328.37839 129.1786 330.14059 126.0448 331.82859 129.2192" style="fill:#ebebeb;"></polygon><polygon points="417.45289 170.4832 420.58679 172.2455 417.41229 173.9334 415.65 177.0673 413.96209 173.8929 410.82819 172.1307 414.00269 170.4426 415.765 167.3088 417.45289 170.4832" style="fill:#ebebeb;"></polygon><polygon points="210.78129 129.5959 213.91519 131.3581 210.74069 133.046 208.97849 136.1799 207.29049 133.0055 204.15659 131.2433 207.33109 129.5552 209.09339 126.4214 210.78129 129.5959" style="fill:#ebebeb;"></polygon><polygon points="100.6261 137.0442 103.76 138.8064 100.5855 140.4944 98.8233 143.6283 97.1353 140.4539 94.0014 138.6916 97.176 137.0036 98.9382 133.8698 100.6261 137.0442" style="fill:#ebebeb;"></polygon><g><g><g><path d="M443.92039,309.2877h-180.7461c-3.2324,0-5.86229-2.6298-5.86229-5.8623V40.152c0-3.2324,2.62989-5.8618,5.86229-5.8618h180.7461c3.2324,0,5.8623,2.6294,5.8623,5.8618V303.4254c0,3.2325-2.6299,5.8623-5.8623,5.8623ZM263.17429,34.5402c-3.0947,0-5.61229,2.5176-5.61229,5.6118V303.4254c0,3.0948,2.51759,5.6123,5.61229,5.6123h180.7461c3.0947,0,5.6123-2.5175,5.6123-5.6123V40.152c0-3.0942-2.5176-5.6118-5.6123-5.6118h-180.7461Z" style="fill:#e0e0e0;"></path><path d="M235.49269,309.2877H54.7461c-3.2324,0-5.8618-2.6298-5.8618-5.8623V40.152c0-3.2324,2.6294-5.8618,5.8618-5.8618H235.49269c3.2324,0,5.86231,2.6294,5.86231,5.8618V303.4254c0,3.2325-2.62991,5.8623-5.86231,5.8623ZM54.7461,34.5402c-3.0942,0-5.6118,2.5176-5.6118,5.6118V303.4254c0,3.0948,2.5176,5.6123,5.6118,5.6123H235.49269c3.0947,0,5.61231-2.5175,5.61231-5.6123V40.152c0-3.0942-2.51761-5.6118-5.61231-5.6118H54.7461Z" style="fill:#e0e0e0;"></path></g><rect x="0" y="370.3571" width="500" height=".25" style="fill:#e0e0e0;"></rect></g><rect x="51.6724" y="384.6216" width="16.06" height=".25" style="fill:#e0e0e0;"></rect><rect x="170.3524" y="381.9116" width="53.53" height=".25" style="fill:#e0e0e0;"></rect><rect x="68.7324" y="393.9116" width="36.25" height=".25" style="fill:#e0e0e0;"></rect><rect x="378.35239" y="381.7816" width="43.19" height=".25" style="fill:#e0e0e0;"></rect><rect x="430.45239" y="381.7816" width="6.33" height=".25" style="fill:#e0e0e0;"></rect><rect x="316.21239" y="388.0116" width="53.89" height=".25" style="fill:#e0e0e0;"></rect></g></g><g id="freepik--Shadow--inject-1"><path d="M433.32059,455.1484c0,10.9557-83.9748,19.8372-187.563,19.8372s-187.56299-8.8815-187.56299-19.8372,83.9748-19.8375,187.56299-19.8375,187.563,8.8815,187.563,19.8375Z" style="fill:#f5f5f5;"></path></g><g id="freepik--Musical_notes--inject-1"><path d="M340.15479,83.1552c-.6797-.5699-1.5425-.875-2.4294-.8588-1.02439,.0166-2.0053-.4128-2.6882-1.1764l-.1059-.353c-.0369-.1225-.1649-.193-.28829-.1588-.12241,.0369-.19291,.165-.15871,.2882l4.0529,13.6763c-.3148-.1805-.663-.2946-1.0235-.3353-.884-.0857-1.7743,.0772-2.5706,.4706-1.8176,.847-2.847,2.4999-2.294,3.6882,.4764,1.0235,1.9764,1.3705,3.5293,.9058,.2594-.0779,.513-.1743,.7588-.2882,.8132-.3584,1.5101-.937,2.01181-1.6706,.43349-.568,.54459-1.319,.294-1.9881h0l-2.84111-9.5823c.6883,.5918,1.5689,.9118,2.4765,.9,1.0842-.0114,2.1147,.4714,2.7999,1.3117,.0462,.0462,.1135,.0641,.1765,.0471h.04121c.06989-.0401,.10369-.1223,.08229-.2l-1.0058-3.3823c-.1279-.5074-.4144-.9607-.8177-1.2941Z" style="fill:#385941;"></path><path d="M172.2608,130.935c-.6796-.57-1.5424-.875-2.4293-.8589-1.0244,.0167-2.0054-.4127-2.6882-1.1764l-.1059-.353c-.0369-.1224-.165-.1929-.2882-.1587-.1225,.0368-.1931,.1649-.1588,.2882l4.0529,13.6763c-.3147-.1805-.6631-.2946-1.0235-.3354-.884-.0858-1.7744,.0772-2.5706,.4707-1.8176,.847-2.847,2.4999-2.2941,3.6881,.4765,1.0235,1.9764,1.3706,3.5294,.9058,.2594-.0779,.5131-.1742,.7588-.2881,.8133-.3584,1.5101-.9371,2.0117-1.6706,.4337-.568,.5448-1.319,.2942-1.9883h0l-2.8411-9.5821c.6881,.5918,1.5688,.9118,2.4763,.9,1.0843-.0114,2.1148,.4714,2.8,1.3117,.0462,.0462,.1135,.0641,.1764,.047h.0412c.07-.04,.1039-.1223,.0825-.1999l-1.006-3.3823c-.1279-.5074-.4143-.9607-.8177-1.2941Z" style="fill:#385941;"></path><path d="M370.92989,157.3397h0l-2.5574-7.8302-.955-2.9171-.0723-.1545-7.9758,2.5932,.0747,.1599,.9496,2.9195,2.3382,7.1666c-.8686-.3657-1.8584-.302-2.67289,.1719-1.33321,.6623-2.05821,1.917-1.62581,2.7862,.3539,.7567,1.4955,.9761,2.65,.5985,.1835-.0699,.3616-.1532,.5329-.2492,1.32-.6626,2.0472-1.8988,1.6357-2.7649h0l-2.197-6.7259,7.3231-2.392,1.978,6.0492c-.2334-.129-.4913-.2076-.757-.2303-.6574-.0464-1.3147,.0922-1.8974,.4001-1.3359,.6702-2.0634,1.9195-1.631,2.7888,.3537,.7566,1.4953,.976,2.65,.5984,.1834-.07,.36151-.1533,.5328-.2491,1.361-.6169,2.0828-1.8505,1.6766-2.7191Zm-9.95389-4.5533l-.25861-.7752,7.3232-2.3919,.2586,.7752-7.32319,2.3919Z" style="fill:#385941;"></path><path d="M240.58759,76.4869h0l-2.5575-7.8303-.955-2.9171-.0722-.1545-7.97589,2.5932,.07469,.1599,.9497,2.9195,2.3381,7.1666c-.86849-.3657-1.8583-.302-2.6729,.172-1.3331,.6622-2.0582,1.9169-1.6257,2.7862,.3538,.7566,1.4954,.976,2.65,.5984,.1834-.0699,.3615-.1531,.5328-.2492,1.3201-.6626,2.0472-1.8988,1.6357-2.7648h0l-2.197-6.726,7.3232-2.392,1.978,6.0493c-.2334-.1291-.4914-.2076-.757-.2304-.6574-.0464-1.3148,.0922-1.8974,.4001-1.336,.6702-2.0635,1.9195-1.6311,2.7888,.3538,.7566,1.4954,.976,2.6501,.5985,.1834-.0701,.3615-.1534,.53281-.2492,1.36089-.6169,2.08269-1.8505,1.67659-2.719Zm-9.954-4.5534l-.2585-.7752,7.3231-2.3919,.2586,.7752-7.3232,2.3919Z" style="fill:#385941;"></path></g><g id="freepik--Character_2--inject-1"><g><g><g><g><path d="M242.29389,126.8825c1.3836,3.6223,5.0252,5.5962,8.1337,4.4088s4.5067-5.0865,3.123-8.7087c-1.3837-3.6223-5.0253-5.5962-8.1337-4.4087-3.1085,1.1874-4.5067,5.0864-3.123,8.7086Z" style="fill:#385941;"></path><path d="M242.29389,126.8825c1.3836,3.6223,5.0252,5.5962,8.1337,4.4088s4.5067-5.0865,3.123-8.7087c-1.3837-3.6223-5.0253-5.5962-8.1337-4.4087-3.1085,1.1874-4.5067,5.0864-3.123,8.7086Z" style="fill:#fff; opacity:.7;"></path><path d="M244.30609,126.1139c1.0323,2.7024,3.7491,4.175,6.0682,3.2892,2.3191-.8859,3.3622-3.7948,2.3299-6.4972s-3.7491-4.175-6.06819-3.2892c-2.31911,.8859-3.36221,3.7948-2.32991,6.4972Z" style="fill:#385941;"></path></g><g><path d="M256.588,103.7337c-1.51131-1.8529-6.92151-2.3475-9.718,.8795-2.98641,3.4357-6.90561,9.8961-9.02431,7.9876,.5444,2.0929,2.3294,3.6291,4.4802,3.8553,0,0-2.4238,2.3336-5.2714,1.2345,.84351,2.9785,3.30851,5.2172,6.3542,5.771,4.9465,1.037,12.7686-12.7901,14.0178-15.061,.1619-2.5747-.0173-2.4784-.83849-4.6669Z" style="fill:#263238;"></path><path d="M259.64459,104.5605c4.4577-.2581,8.8222,1.3476,12.0497,4.433,2.0911,2.0388,3.6391,4.654,2.6936,7.6056-2.221,6.0729-4.7802,12.0166-7.6658,17.8034l-20.1287-17.6106s.344-6.8307,3.9354-9.9342c1.9346-1.5908,5.82221-2.1436,9.1158-2.2972Z" style="fill:#263238;"></path><path d="M255.79889,104.0906s7.9039-4.924,17.5133,3.1983c9.6095,8.1224-1.3659,21.0595-1.3659,21.0595,0,0-3.60729,5.7952-.858,7.452-1.0566,.3357-2.1717,.4469-3.2737,.3266,0,0,.8648,1.8839,2.1171,1.8394,0,0-1.78669,.5813-4.7998-.9984-3.013-1.5798-9.333-32.8774-9.333-32.8774Z" style="fill:#263238;"></path><path d="M253.983,139.9091h0l-.02551,.0848,.315,4.2552c-.1236,1.5081-.4938,2.9858-1.0959,4.374-.8702,1.3563,2.6647,2.1658,5.3346,2.5874,4.0139,.641,8.207-1.924,8.804-3.6398-.8271-5.8191-1.1723-12.5104,.1033-17.674l-5.5044,4.1229-7.93109,5.8895Z" style="fill:#ebb376;"></path><g style="opacity:.2;"><path d="M253.99669,140.0172l.3151,4.2553c2.7215-.6724,5.80021-2.6472,6.90121-5.1938,.78569-1.8439,.255-3.8064-.50171-4.057l-6.7146,4.9955Z"></path></g><path d="M245.46729,129.6049c.0661,.9329,.1704,1.8541,.3236,2.7669,1.0502,8.0358,10.3207,10.4889,17.1696,6.0075h0c.6228-.4076,1.2123-.8641,1.7626-1.3652,4.6035-4.1628,4.3794-8.0671,5.4104-16.6442,.8587-6.4404-3.6661-12.3574-10.10649-13.2161-1.82431-.2432-3.68021-.055-5.41871,.5494-7.8418,2.6341-9.8671,12.6343-9.141,21.9017Z" style="fill:#ebb376;"></path><path d="M270.07569,121.1384s-2.5736-.3581-3.0976,1.8073c-.52409,2.1653-.3568,2.493-.3568,2.493l-3.1389,.0614s2.4575-8.1712,.2391-8.4802c-2.21849-.3089,.8801-3.6183-.3373-4.4121-2.9021-1.8783-11.3517-3.5643-15.6023,.9241,1.20811-2.975,3.46411-5.4047,6.3416-6.8297,4.55-1.9483,12.7647-.9801,15.28551,3.6264,2.52079,4.6066,.66669,10.8098,.66669,10.8098Z" style="fill:#263238;"></path><path d="M256.96149,123.7901c-.0359,.7849-.4813,1.398-.9949,1.3694-.5134-.0285-.9009-.688-.8649-1.4728,.0358-.7849,.48131-1.3979,.9948-1.3693,.51351,.0285,.9008,.6878,.865,1.4727Z" style="fill:#263238;"></path><path d="M249.25719,123.5912c-.0356,.7848-.481,1.3978-.9945,1.3695-.5136-.0287-.9009-.688-.8651-1.4729s.4812-1.398,.9948-1.3693c.5135,.0286,.9008,.6879,.8648,1.4727Z" style="fill:#263238;"></path><path d="M251.78149,123.2706s-1.9471,2.7682-3.0546,4.5405c-.3021,.4834-.114,1.1545,.4254,1.3387,.9769,.3336,2.0472,.1261,2.0472,.1261l.582-6.0053Z" style="fill:#d58745;"></path><path d="M259.04909,120.1788c-.1207,.043-.261,.0216-.3662-.0687-1.25089-1.0709-2.5577-.7148-2.57089-.7113-.19521,.0556-.40041-.057-.458-.2514-.05721-.1944,.05529-.3974,.24929-.4533,.0688-.0199,1.7065-.4667,3.2582,.8627,.155,.1325,.1733,.3642,.0413,.517-.0427,.0496-.09579,.0845-.1537,.105Z" style="fill:#263238;"></path><path d="M253.657,131.8943c1.27249,.068,2.28909-.522,3.31839-1.4249" style="fill:none; stroke:#263238; stroke-linecap:round; stroke-linejoin:round; stroke-width:.75px;"></path><g><path d="M272.51669,126.0015c-.7589,2.1002-2.4208,3.6444-4.09969,4.3845-2.52541,1.1138-3.32261-1.6282-2.96931-4.2246,.3181-2.3369,1.1337-5.1639,3.836-5.1816,2.66231-.0173,4.1006,2.6205,3.233,5.0217Z" style="fill:#ebb376;"></path><path d="M270.73149,123.627c-.3109-.5093-.9824-.722-1.5677-.6061-.5851,.1159-1.0846,.5077-1.4597,.9715-.45,.557-.7513,1.2331-.8643,1.9403" style="fill:none; opacity:.2; stroke:#000; stroke-linecap:round; stroke-linejoin:round; stroke-width:.5px;"></path></g><path d="M246.01249,120.1232c-.0676-.0178-.1308-.0551-.1809-.1116-.1354-.1523-.1237-.3856,.0265-.5207,1.5084-1.3559,3.1402-.9134,3.2157-.903,.1956,.0542,.31221,.2569,.2604,.4531-.0519,.1958-.2508,.3107-.4456,.2591-.0672-.0212-1.32859-.3457-2.5393,.7425-.0946,.0852-.2219,.1112-.3368,.0806Z" style="fill:#263238;"></path></g><g><path d="M263.96109,124.2353c-1.137,3.7071,.5201,7.5033,3.7013,8.4791,3.1813,.9758,6.682-1.2384,7.819-4.9455,1.1371-3.7071-.5201-7.5033-3.7013-8.4791-3.1813-.9757-6.6819,1.2384-7.819,4.9455Z" style="fill:#385941;"></path><path d="M263.96109,124.2353c-1.137,3.7071,.5201,7.5033,3.7013,8.4791,3.1813,.9758,6.682-1.2384,7.819-4.9455,1.1371-3.7071-.5201-7.5033-3.7013-8.4791-3.1813-.9757-6.6819,1.2384-7.819,4.9455Z" style="fill:#fff; opacity:.7;"></path><path d="M266.02039,124.867c-.8483,2.7657,.388,5.5979,2.7614,6.3258,2.3734,.728,4.9851-.9239,5.8334-3.6896s-.388-5.5979-2.7614-6.3258c-2.3734-.728-4.9851,.9239-5.8334,3.6896Z" style="fill:#385941;"></path></g><path d="M256.49609,103.6833c0-.9257,3.25391-1.2686,3.73391-1.0715,0,0,14.44179,1.6135,12.08459,22.0577l-3.0202,.0631s3.9315-18.6388-12.7983-21.0493Z" style="fill:#385941;"></path></g><g><path d="M186.6265,205.5145c.3319-.553,13.1623-16.2309,17.808-21.0979,4.6458-4.8669,17.3256-18.4914,17.3256-18.4914l9.5158,9.7962-16.863,16.0969-21.3176,17.3205-6.4688-3.6243Z" style="fill:#ebb373;"></path><path d="M197.6282,214.0827c-.7634-.5089-.5089-1.8321-1.3741-3.308s-2.9518-2.3411-2.9518-2.3411c0,0-.3653-.7721-.3135-.8258,.0518-.0538-6.3623-2.0933-6.3623-2.0933,0,0-3.3031,1.6857-3.6554,1.9522-1.7698,1.3384-7.074,6.0053-7.7356,7.1758l-.0195,.035c-.4203,.7608,.2378,1.67,1.0959,1.5316l.32-.0954c.3387,1.0964,2.1693,.2895,2.1693,.2895,2.1884,1.1196,3.1364-.3221,3.1364-.3221,0,0,.2105,.795,1.7969,.6989,.8144-.0493,4.7327-3.6005,4.8853-3.7023,.1527-.1018,3.3386-.6774,3.3386-.6774,1.8321,1.934,4.2957,3.1074,5.3645,2.9038,1.0687-.2036,1.0687-.7125,.3053-1.2214Z" style="fill:#ebb373;"></path><g style="opacity:.3;"><path d="M182.9356,212.0322c-1.7289,1.5059-2.4656,2.5914-4.0306,4.336,0,0,.3953-1.0773,1.4329-2.2325,1.2266-1.3658,2.5977-2.1035,2.5977-2.1035Z"></path></g><g style="opacity:.3;"><path d="M185.9113,211.8629c-1.729,1.5058-2.4656,2.5914-4.0307,4.336,0,0,.3954-1.0773,1.4329-2.2326,1.2266-1.3658,2.5978-2.1034,2.5978-2.1034Z"></path></g><g style="opacity:.3;"><path d="M180.8181,211.4079c-1.4578,1.5711-2.6211,2.9612-4.1862,4.7058,0,0,1.0752-1.7238,1.9404-2.7554s2.2458-1.9504,2.2458-1.9504Z"></path></g><polygon points="195.3919 207.2729 191.6997 207.5915 193.7198 208.6315 195.3919 207.2729" style="opacity:.3;"></polygon></g><path d="M251.06449,146.5445c.1754,0,4.0671-.7829,4.0671-.7829l11.7109,.4272s6.0496,.1457,5.9327,.3211c-.117,.1754-6.16219,12.662-6.16219,12.662l-6.721-.9938s-7.45091-2.2026-7.08691-2.329c.364-.1263-1.7406-9.3046-1.7406-9.3046Z" style="fill:#ebb373;"></path><g><path d="M277.37089,151.7632l9.65411-8.5162,11.37719-7.965-4.4347-25.9789,6.0379-3.2658s13.5783,29.798,10.5312,35.098c-3.047,5.2999-25.21059,23.5836-25.21059,23.5836l-7.95511-12.9557Z" style="fill:#ebb373;"></path><path d="M299.362,100.0646c-.96311-1.6597-2.27271-3.8056-3.19561-3.9176-.923-.1119-1.0903,.6305-1.6595,.7063s-1.3737-.4872-2.2356,.8237c0,0-2.1255-.5704-2.5527,.9418-1.4078,.3095-1.6934,1.2017-1.2553,2.6928,.1222,.3531,1.2402,2.259,1.3279,2.6293-.1475-.0607-1.7445-2.0638-1.9498-2.1031-1.738-.332-2.5469,.0121-2.4681,.8004,.0406,.4068,.3319,.7447,.7111,.8974,.9275,.3734,1.6555,3.8554,2.7443,4.3305,.9132,.3984,4.0352,1.5466,5.29131,1.7144,1.256,.1678,6.05789-1.7907,6.05789-1.7907,0,0,.1472-6.0655-.81589-7.7252Z" style="fill:#ebb373;"></path><path d="M290.01269,99.3933c.6128,1.4803,1.3195,3.1734,2.5034,4.4146,.2726,.2857,.5956,.5449,.97991,.6359,.38429,.0909,.83839-.0252,1.05189-.3575,.1796-.2794,.1576-.6416,.09-.9668-.1264-.6085-.3872-1.1794-.64589-1.7444-.427-.9325-.85411-1.865-1.28111-2.7974" style="fill:none; stroke:#d58745; stroke-linecap:round; stroke-linejoin:round; stroke-width:.5px;"></path><path d="M294.674,102.9162c.49809,.1716,1.26639-.1785,1.46829-.6652,.2019-.4866,.1348-1.0402,.0272-1.5559-.1873-.8985-.4876-1.7734-.8916-2.5976" style="fill:none; stroke:#d58745; stroke-linecap:round; stroke-linejoin:round; stroke-width:.5px;"></path><path d="M296.27329,101.7173c.2716,.1759,.85371,.2964,1.1238,.1182,.27-.1782,.4488-.4673,.5687-.7678,.2836-.7107,.2721-1.5339-.0312-2.2363" style="fill:none; stroke:#d58745; stroke-linecap:round; stroke-linejoin:round; stroke-width:.5px;"></path><path d="M290.07179,104.5122c2.00521-.3952,4.2053,.4981,5.3675,2.1793" style="fill:none; stroke:#d58745; stroke-linecap:round; stroke-linejoin:round; stroke-width:.5px;"></path></g><path d="M298.40219,135.282s2.4697,1.2755,4.1049,2.4338c0,0-2.1506-3.5876-4.3019-3.5876l.197,1.1538Z" style="opacity:.3;"></path><g><path d="M268.92939,146.0595l12.6131-1.2465,10.31251-5.1659,7.84759,18.5702-15.76759,9.6467,.11809,55.2987h-50.5169l1.6679-45.4706-6.7423,7.0918-13.18379-14.7428s16.91829-19.7673,20.85849-20.9877l15.3327-2.8477s2.18781,5.9033,9.4152,5.2945c5.6261-.4739,8.045-5.4407,8.045-5.4407Z" style="fill:#385941;"></path><path d="M268.92939,146.0595l12.6131-1.2465,10.31251-5.1659,7.84759,18.5702-15.76759,9.6467,.11809,55.2987h-50.5169l1.6679-45.4706-6.7423,7.0918-13.18379-14.7428s16.91829-19.7673,20.85849-20.9877l15.3327-2.8477s2.18781,5.9033,9.4152,5.2945c5.6261-.4739,8.045-5.4407,8.045-5.4407Z" style="fill:#fff; opacity:.6;"></path><g style="opacity:.3;"><path d="M235.16189,178.1233s.5419-11.0098,0-16.5147c0,0-3.7944,8.4541,0,16.5147Z"></path></g><path d="M283.935,167.864v-12.0446s3.50149,6.4857,0,12.0446Z" style="opacity:.3;"></path></g></g><g><g><rect x="59.0632" y="357.9174" width="380.46269" height="13.897" style="fill:#263238;"></rect><rect x="59.0632" y="357.9174" width="380.46269" height="13.897" style="fill:#263238; opacity:.3;"></rect></g><rect x="270.13729" y="215.2825" width="65.9805" height="8.3189" style="fill:#263238;"></rect><rect x="270.13729" y="215.2825" width="65.9805" height="8.3189" style="fill:#fff; opacity:.2;"></rect><g><rect x="163.2227" y="215.2825" width="65.9804" height="8.3189" style="fill:#263238;"></rect><rect x="163.2227" y="215.2825" width="65.9804" height="8.3189" style="fill:#fff; opacity:.2;"></rect></g><g><rect x="343.97439" y="240.4786" width="80.9733" height="118.4495" style="fill:#263238;"></rect><rect x="347.284" y="240.4786" width="10.56039" height="118.4495" style="opacity:.3;"></rect><circle cx="391.4665" cy="271.07613" r="14.75258" transform="translate(64.4007 617.13428) rotate(-81.31736)" style="opacity:.3;"></circle><circle cx="391.46649" cy="271.0006" r="18.6569" style="fill:none; opacity:.3; stroke:#000; stroke-miterlimit:10;"></circle><path d="M397.26379,271.0761c0,3.2018-2.5955,5.7974-5.7973,5.7974s-5.7974-2.5956-5.7974-5.7974,2.5956-5.7973,5.7974-5.7973,5.7973,2.5955,5.7973,5.7973Z" style="fill:#385941;"></path><circle cx="391.46647" cy="325.87763" r="22.09069" transform="translate(-115.77241 372.25594) rotate(-45)" style="opacity:.3;"></circle><circle cx="391.46647" cy="325.76447" r="27.93712" transform="translate(-16.39661 630.75004) rotate(-76.55386)" style="fill:none; opacity:.3; stroke:#000; stroke-miterlimit:10;"></circle><circle cx="391.46647" cy="325.87762" r="8.68109" transform="translate(-115.77241 372.25594) rotate(-45)" style="fill:#385941;"></circle></g><g><rect x="73.0493" y="240.4786" width="80.9733" height="118.4495" transform="translate(227.0719 599.4067) rotate(180)" style="fill:#263238;"></rect><rect x="140.1526" y="240.4786" width="10.5604" height="118.4495" transform="translate(290.8656 599.4067) rotate(180)" style="opacity:.3;"></rect><circle cx="106.5305" cy="271.07613" r="14.7525" transform="translate(-42.73062 20.97188) rotate(-9.37418)" style="opacity:.3;"></circle><circle cx="106.5305" cy="271.0006" r="18.6569" style="fill:none; opacity:.3; stroke:#000; stroke-miterlimit:10;"></circle><path d="M100.7331,271.0761c0,3.2018,2.5956,5.7974,5.7974,5.7974s5.7974-2.5956,5.7974-5.7974-2.5956-5.7973-5.7974-5.7973-5.7974,2.5955-5.7974,5.7973Z" style="fill:#385941;"></path><circle cx="106.5305" cy="325.87763" r="22.09067" transform="translate(-234.99414 295.77957) rotate(-66.86088)" style="opacity:.3;"></circle><circle cx="106.5305" cy="325.76447" r="27.93713" transform="translate(-235.48855 303.53364) rotate(-68.17245)" style="fill:none; opacity:.3; stroke:#000; stroke-miterlimit:10;"></circle><circle cx="106.5305" cy="325.87762" r="8.68107" transform="translate(-235.07244 296.68164) rotate(-67.0122)" style="fill:#385941;"></circle></g><rect x="149.1122" y="222.0759" width="201.04809" height="135.8415" style="fill:#263238;"></rect><rect x="161.8576" y="232.3183" width="178.5466" height="120.0571" style="fill:#fff; opacity:.2;"></rect><rect x="232.91859" y="217.1222" width="8.61741" height="5.7847" style="fill:#263238;"></rect><rect x="243.034" y="218.274" width="4.41239" height="4.6329" style="fill:#263238;"></rect><rect x="249.99389" y="218.274" width="4.4125" height="4.6329" style="fill:#263238;"></rect><g><rect x="167.4021" y="342.1415" width="24.1308" height="5.5522" style="fill:#fff; opacity:.2;"></rect><rect x="167.4021" y="333.6539" width="24.1308" height="5.5522" style="fill:#fff; opacity:.2;"></rect><rect x="167.4021" y="325.1662" width="24.1308" height="5.5523" style="fill:#fff; opacity:.2;"></rect><rect x="167.4021" y="316.6786" width="24.1308" height="5.5522" style="fill:#fff; opacity:.2;"></rect><rect x="167.4021" y="299.7034" width="24.1308" height="5.5522" style="fill:#fff; opacity:.2;"></rect><rect x="167.4021" y="291.2157" width="24.1308" height="5.5523" style="fill:#fff; opacity:.2;"></rect><rect x="167.4021" y="282.7281" width="24.1308" height="5.5523" style="fill:#fff; opacity:.2;"></rect><rect x="167.4021" y="308.191" width="24.1308" height="5.5522" style="fill:#fff; opacity:.2;"></rect></g><rect x="196.5814" y="342.1415" width="24.1309" height="5.5522" style="fill:#fff; opacity:.2;"></rect><rect x="196.5814" y="333.6539" width="24.1309" height="5.5522" style="fill:#fff; opacity:.2;"></rect><rect x="196.5814" y="325.1662" width="24.1309" height="5.5523" style="fill:#fff; opacity:.2;"></rect><rect x="196.5814" y="316.6786" width="24.1309" height="5.5522" style="fill:#fff; opacity:.2;"></rect><rect x="196.5814" y="308.191" width="24.1309" height="5.5522" style="fill:#fff; opacity:.2;"></rect><rect x="196.5814" y="299.7034" width="24.1309" height="5.5522" style="fill:#fff; opacity:.2;"></rect><rect x="196.5814" y="291.2157" width="24.1309" height="5.5523" style="fill:#fff; opacity:.2;"></rect><rect x="196.5814" y="282.7281" width="24.1309" height="5.5523" style="fill:#fff; opacity:.2;"></rect><rect x="196.5814" y="273.8354" width="24.1309" height="5.5522" style="fill:#fff; opacity:.2;"></rect><rect x="196.5814" y="264.9426" width="24.1309" height="5.5523" style="fill:#fff; opacity:.2;"></rect><rect x="196.5814" y="256.0499" width="24.1309" height="5.5522" style="fill:#fff; opacity:.2;"></rect><g><rect x="225.48859" y="342.1415" width="24.1309" height="5.5522" style="fill:#fff; opacity:.2;"></rect><rect x="225.48859" y="333.6539" width="24.1309" height="5.5522" style="fill:#fff; opacity:.2;"></rect><rect x="225.48859" y="325.1662" width="24.1309" height="5.5523" style="fill:#fff; opacity:.2;"></rect><rect x="225.48859" y="316.6786" width="24.1309" height="5.5522" style="fill:#fff; opacity:.2;"></rect><rect x="225.48859" y="308.191" width="24.1309" height="5.5522" style="fill:#fff; opacity:.2;"></rect><rect x="225.48859" y="299.7034" width="24.1309" height="5.5522" style="fill:#fff; opacity:.2;"></rect><rect x="225.48859" y="291.2157" width="24.1309" height="5.5523" style="fill:#fff; opacity:.2;"></rect></g><g><rect x="283.09149" y="342.1415" width="24.1309" height="5.5522" style="fill:#fff; opacity:.2;"></rect><rect x="283.09149" y="333.6539" width="24.1309" height="5.5522" style="fill:#fff; opacity:.2;"></rect><rect x="283.09149" y="325.1662" width="24.1309" height="5.5523" style="fill:#fff; opacity:.2;"></rect><rect x="283.09149" y="316.6786" width="24.1309" height="5.5522" style="fill:#fff; opacity:.2;"></rect><rect x="283.09149" y="308.191" width="24.1309" height="5.5522" style="fill:#fff; opacity:.2;"></rect><rect x="283.09149" y="299.7034" width="24.1309" height="5.5522" style="fill:#fff; opacity:.2;"></rect><rect x="283.09149" y="291.2157" width="24.1309" height="5.5523" style="fill:#fff; opacity:.2;"></rect></g><g><rect x="253.96579" y="342.1415" width="24.1309" height="5.5522" style="fill:#fff; opacity:.2;"></rect><rect x="253.96579" y="333.6539" width="24.1309" height="5.5522" style="fill:#fff; opacity:.2;"></rect><rect x="253.96579" y="325.1662" width="24.1309" height="5.5523" style="fill:#fff; opacity:.2;"></rect><rect x="253.96579" y="316.6786" width="24.1309" height="5.5522" style="fill:#fff; opacity:.2;"></rect></g><g><rect x="311.88759" y="342.1415" width="24.1309" height="5.5522" style="fill:#fff; opacity:.2;"></rect><rect x="311.88759" y="333.6539" width="24.1309" height="5.5522" style="fill:#fff; opacity:.2;"></rect><rect x="311.88759" y="325.1662" width="24.1309" height="5.5523" style="fill:#fff; opacity:.2;"></rect><rect x="311.88759" y="316.6786" width="24.1309" height="5.5522" style="fill:#fff; opacity:.2;"></rect></g><path d="M383.659,242.7506s5.08949,4.3447,10.30309,2.9792c0,0-5.3378,5.0895-10.30309-2.9792Z" style="opacity:.2;"></path></g></g></g><g id="freepik--Character_3--inject-1"><g><g><path d="M329.54719,242.9593c11.5236,2.7324,16.3462-2.1475,19.8916-6.3801l-.7785,2.022s5.7493-2.6826,5.1701-8.6923c-.5791-6.0097,.0718-5.1892,2.1982-8.2297,2.12641-3.0405,.2537-7.606-2.471-8.1826,0,0,3.67541-3.3471-7.4917-9.1393-11.1673-5.7921-23.1984-.1683-23.7036,6.2527-.5056,6.4211-8.5862,8.9194-11.6255,4.9573-3.0395-3.9621-5.4582-1.9583-5.4582-1.9583,1.6379-.3605,3.3172,.4037,4.1213,1.8756,.8474,1.4255,2.1049,2.5623,3.6085,3.2618-2.2069-.1468-4.3276-.9135-6.1183-2.2119-3.1197-2.1992-6.9083-5.6842-2.8993-9.0603,0,0-4.7994-1.3453-7.30279,4.5217-2.50331,5.867,.71029,11.263,6.64109,15.6168,0,0-9.0384-4.5364-8.2427-8.5299,0,0-3.7526,5.5789,6.3058,14.1052,0,0,10.6039,9.537,20.044,10.1177,9.4402,.5808,8.111-.3464,8.111-.3464Z" style="fill:#263238;"></path><g><path d="M345.38539,244.0626s-3.2046,1.4958-7.5622,4.454c-.9076,.6162-1.8878,1.1267-2.9093,1.5269-2.7564,1.0798-5.215,1.5959-5.7116,.2697-.1108-.2917-.1861-.6025-.2312-.9247-.3024-2.1595,.26091-5.0815,2.1116-6.235,2.0865-1.3006,3.1581-2.4956,3.0511-4.5944-.0462-1.1883-.3296-2.442-.6883-3.6695l1.70651-1.5846,8.78109-7.0303c-.8082,5.2778-2.3586,14.4328,1.4523,17.7879Z" style="fill:#eec1bb;"></path><path d="M334.14549,239.0186c2.3113-1.0345,4.9417-2.9879,4.9508-5.5656-.0032-1.086-.117-2.128-.2987-2.8086l-5.0648,5.3102c.2524,.9792,.3127,1.6144,.4127,3.064Z" style="opacity:.2;"></path><path d="M347.14229,218.016c-1.6727,7.9958-2.2109,11.4063-6.87,15.1626-7.0082,5.6501-16.41129,2.3925-17.14829-5.8095-.66351-7.3822,2.18339-19.2177,10.50889-21.6987,8.2023-2.4441,15.182,4.3496,13.5094,12.3456Z" style="fill:#eec1bb;"></path><path d="M336.78239,219.4025c-.12939,.7518-.6661,1.3204-1.1988,1.2702-.5328-.0501-.8597-.7001-.7304-1.4517,.1292-.7516,.666-1.3203,1.1987-1.2703,.5327,.0501,.8597,.7002,.7305,1.4518Z" style="fill:#263238;"></path><path d="M328.42079,218.3218c-.127,.7281-.6606,1.278-1.1917,1.2282-.531-.0501-.8588-.6809-.7317-1.4091,.1271-.728,.6605-1.278,1.1917-1.2281,.5311,.0498,.8587,.6807,.7317,1.409Z" style="fill:#263238;"></path><path d="M338.40149,216.6555c-.1043-.0004-.2054-.0425-.2767-.1254-1.112-1.2963-2.5604-1.0534-2.5772-1.0505-.2147,.0365-.4115-.1053-.4345-.3228-.0226-.2172,.135-.4244,.3527-.4638,.0758-.0132,1.8939-.3201,3.2737,1.2894,.1373,.1603,.1112,.4133-.058,.5647-.0821,.0727-.1824,.1087-.28,.1084Z" style="fill:#263238;"></path><path d="M326.20239,214.8401c-.0982,.0124-.1985-.0115-.2785-.0753-.1652-.1317-.1831-.382-.0406-.5587,1.4305-1.7732,3.24271-1.6821,3.3201-1.6767,.2164,.0136,.3681,.2025,.3384,.4228-.0291,.2197-.2281,.3868-.4441,.3744-.0709-.0045-1.4785-.0545-2.6156,1.3557-.0737,.0911-.1758,.1451-.2797,.1578Z" style="fill:#263238;"></path><path d="M329.54719,226.4516c.5409,1.0886,1.1055,3.1421,1.1055,3.1421,.19531-.0176,.3906-.0351,.58431-.063,2.64219-.3051,3.76729-1.3199,4.21309-2.352,.2417-.5655,.2734-1.1426,.2383-1.6059-.0351-.5366-.1822-.9111-.1822-.9111-1.30419,.9986-3.7455,1.473-5.0601,1.6717-.5494,.0891-.8989,.1182-.8989,.1182Z" style="fill:#263238;"></path><path d="M330.44609,226.3334l.34991,.9179c2.48809-.2936,4.20039-.8341,4.89239-1.6785-.0351-.5366-.1822-.9111-.1822-.9111-1.30419,.9986-3.7455,1.473-5.0601,1.6717Z" style="fill:#fff;"></path><path d="M331.237,229.5307c2.64219-.3051,3.76729-1.3199,4.21309-2.352-.8965,.1389-1.9618,.4058-2.8669,.9205-.6936,.3907-1.097,.9172-1.34619,1.4315Z" style="fill:#dc5753;"></path><path d="M330.61819,218.3515s-1.6133,2.879-3.2571,4.6003c-.2872,.3008-.1885,.7996,.1827,.987,.9555,.4825,2.1617,.2849,2.1617,.2849l.9127-5.8722Z" style="fill:#d4827d;"></path><path d="M336.21619,217.9511l-1.8043-.6521s.8547,1.5002,1.8043,.6521Z" style="fill:#263238;"></path><path d="M327.87759,216.9539l-1.8041-.6523s.8547,1.5002,1.8041,.6523Z" style="fill:#263238;"></path></g><path d="M324.12269,214.1437c7.7271,.025,16.109-6.4123,17.89831-5.9591-1.80331,.6558-1.479,3.7689-1.06251,4.7662,2.7524,6.4215,.08,10.1666,4.3713,11.4782,8.4277,2.5672,4.4435-14.0881-.7986-16.8668-.412-.2185,0,0-.4431-.1454,.722-7.9856-14.1153-3.4132-17.5688-.3848" style="fill:#263238;"></path><path d="M348.82739,224.8843c-1.1457,1.5473-2.817,2.409-4.2803,2.6016-2.2009,.2896-2.9086-3.2771-1.9313-5.3358,.88-1.8534,3.12921-2.8879,5.1625-2.2271,2.0031,.6512,2.3591,3.1922,1.0491,4.9613Z" style="fill:#eec1bb;"></path><path d="M344.05319,224.0928c.1552-.7548,.5939-1.4479,1.2096-1.9112,.6159-.4633,1.4033-.6928,2.1716-.6328" style="fill:none; opacity:.2; stroke:#000; stroke-linecap:round; stroke-linejoin:round; stroke-width:.5px;"></path></g><g><path d="M295.25619,200.1844l1.7234,28.9381,25.0088,16.8825-6.3941,14.2734s-17.9431-14.5485-25.7316-22.9207c-7.7886-8.3722-1.3998-38.9672-1.3998-38.9672l6.7933,1.7939Z" style="fill:#eec1bb;"></path><g><path d="M294.38059,201.9623s2.9329-.066,4.5885-1.8387c1.6558-1.7728,3.4497-2.7477,4.5896-4.1506,1.1397-1.403-1.2624-.9758-2.4943-.4898-1.2317,.4859-2.6332,1.0241-2.8482,.0398-.2156-.9842,2.38881-9.2494,1.9349-10.58-.4537-1.3308-1.2932-.1256-1.2932-.1256,0,0,.5785-2.0244-.1611-2.472-.1919-.1163-.8274-.0751-1.2355,.8061-.91829,1.9825-2.63129,6.2425-2.63129,6.2425,.10319-.2425,1.84209-5.6517,1.99679-6.4958,.20221-1.1032-.2651-1.7266-.9086-1.8229-.9158-.1371-3.3003,6.4959-3.5966,6.7054,0,0,1.5006-3.7729,.7386-4.6932-.7618-.9203-1.836,1.4031-2.394,3.6317-.5116,2.0429-2.0499,5.9168-2.3683,8.0441-.3926,2.6213-.0672,4.4695,2.0185,5.821,2.0861,1.3516,4.0642,1.378,4.0642,1.378Z" style="fill:#eec1bb;"></path><path d="M298.83369,185.0979c-.5043,1.6107-1.0821,3.1985-1.73069,4.7567" style="fill:none; opacity:.3; stroke:#000; stroke-linecap:round; stroke-linejoin:round; stroke-width:.25px;"></path><path d="M291.68829,189.2258c2.17871,.0824,4.3285,.8216,6.0972,2.0967" style="fill:none; opacity:.3; stroke:#000; stroke-linecap:round; stroke-linejoin:round; stroke-width:.25px;"></path><path d="M297.186,195.8735c-.87781-.1368-1.80161,.0424-2.56491,.4972-.763,.4551-1.3599,1.1824-1.6572,2.0198" style="fill:none; opacity:.3; stroke:#000; stroke-linecap:round; stroke-linejoin:round; stroke-width:.25px;"></path></g></g><g><path d="M352.12009,267.2212l4.4141-20.0868c-3.48619-2.7949-16.56619-3.4529-16.56619-3.4529l-20.28661,.6174-2.5271,8.6689s-3.8021,8.0812-4.6084,14.3097c-.4164,3.2165,1.6367,16.4284,.8737,22.6614l-.712,6.9423c19.6997,14.4379,39.83141,13.2435,39.83141,13.2435-.94321-2.6235-5.93271-10.9592-6.39971-13.5362,.1862-3.3106,.1366-6.4971,1.8419-13.4611,1.4137-5.7731,4.1556-15.1731,4.1389-15.9062Z" style="fill:#385941;"></path><g style="opacity:.4;"><path d="M352.12009,267.2212l4.4141-20.0868c-3.48619-2.7949-16.56619-3.4529-16.56619-3.4529l-20.28661,.6174-2.5271,8.6689s-3.8021,8.0812-4.6084,14.3097c-.4164,3.2165,1.6367,16.4284,.8737,22.6614l-.712,6.9423c19.6997,14.4379,39.83141,13.2435,39.83141,13.2435-.94321-2.6235-5.93271-10.9592-6.39971-13.5362,.1862-3.3106-.0815-5.9868,1.7046-12.9305,1.4137-5.4958,4.2929-15.7037,4.2762-16.4368Z" style="fill:#fff;"></path></g><path d="M323.604,244.1453s-2.96311,13.4595,3.19219,16.1768c6.1554,2.7172,11.7906-2.1037,15.692-5.6012,3.9013-3.4976,7.28581-9.9421,7.28581-9.9421l-8.75961-1.4295-17.41039,.796Z" style="fill:#eec1bb;"></path></g><g><g id="freepik--freepik--Character--inject-85--inject-1"><path d="M310.41869,315.0786s-26.403,58.9071-21.8943,65.5556c14,24.2781,35.4575,54.305,38.8074,61.8447,.81621,1.1247,5.076-1.1744,5.7328-2.5678,0,0,.0008-3.3485-1.5318-8.7091-10.3205-36.098-4.8552-31.7356-21.8905-55.6553,14.4685-20.1544,25.121-50.9035,25.121-50.9035l-24.3446-9.5646Z" style="fill:#eec1bb;"></path><path d="M318.89849,298.7858s13.287,51.2868,18.552,76.5073c5.5238,26.4446,12.8093,70.9138,11.2666,88.4805,1.483,.8759,4.22,.9953,7.2158,.0497,0,0,11.8538-59.05-.0796-87.3657,5.2352-62.653-1.568-61.379-1.568-61.379l-35.3868-16.2928Z" style="fill:#eec1bb;"></path><path d="M355.04219,313.4064c-1.5921-4.6337-6.2957-12.2039-8.9029-16.3523l-33.5934-.1729-2.9533,14.0371-.3085,2.5777-8.9972,23.0426,25.8672,11.1753,1.045-2.6575,1.9932-4.4014,1.594,7.2979h0l28.522-5.4549c.05071-11.0809-.72929-18.5902-4.2661-29.0916Z" style="fill:#385941;"></path><path d="M355.04219,313.4064c-1.5921-4.6337-6.2957-12.2039-8.9029-16.3523l-33.5934-.1729-2.9533,14.0371-.3085,2.5777-8.9972,23.0426,25.8672,11.1753,1.045-2.6575,1.9932-4.4014,1.594,7.2979h0l28.522-5.4549c.05071-11.0809-.72929-18.5902-4.2661-29.0916Z" style="fill:#385941;"></path><path d="M324.37259,300.0697c.5056,0,.9157,.41,.9157,.9156,0,.5058-.4101,.9157-.9157,.9157-.5058,0-.9157-.4099-.9157-.9157,0-.5056,.4099-.9156,.9157-.9156Z" style="fill:#385941;"></path></g><g><path d="M324.72739,440.3763l2.44061-1.1465c.55219-.2595,1.19419-.2202,1.72979,.0722,2.3104,1.2608,3.0267,.0374,3.7086-2.4887,.9198-.5707,1.7064,.4231,1.9269,.6859l4.9422,5.7793c.4188,.4797,.3694,1.2081-.1102,1.627-.08529,.0745-.1812,.136-.2846,.1825-2.96369,1.3923-4.36569,2.051-8.0544,3.7839l-11.281,5.2999c-3.0751,1.4447-5.1685-1.355-4.0365-2.2368,5.1049-3.9349,8.351-7.5061,9.3331-9.9903,.1902-.4436-.2471-.5029-.3145-1.5684Z" style="fill:#263238;"></path><path d="M322.15119,444.3471c.7616-.3803,1.4816-.8392,2.1481-1.3689,.0586-.0583,.0586-.1531,.0003-.2116-.03159-.0316-.07559-.0476-.1201-.0434-.4212-.0062-4.14249,.0011-4.6528,.9023-.0996,.1606-.0983,.3641,.003,.5237,.15231,.3145,.445,.538,.7885,.6021,.6385,.0641,1.28081-.0775,1.833-.4042Zm1.5839-1.3276c-.8215,.5903-2.3898,1.5994-3.3263,1.4071-.246-.057-.45579-.217-.5759-.4394-.048-.065-.0505-.1529-.0065-.2206,.2838-.4931,2.38-.7096,3.9087-.7471Z" style="fill:#385941;"></path><path d="M324.27119,443.0011c.0354-.0053,.06881-.0209,.0955-.0449,.024-.0546,.0132-.1183-.0275-.1621-.0599-.1274-2.188-2.794-3.77119-1.8169-.388,.2504-.414,.5058-.35131,.6806,.2707,.8452,2.8981,1.4489,3.994,1.401l.0605-.0577Zm-3.4236-1.8634c1.0596-.4978,2.4965,.9666,3.033,1.5704-1.243-.0579-3.2248-.6537-3.3654-1.1808-.0188-.0399-.0711-.1515,.2246-.3294l.1078-.0602Z" style="fill:#385941;"></path><path d="M323.918,443.0556c.89459-.2802,1.91039-.1444,2.69969,.3613" style="fill:none; stroke:#385941; stroke-linecap:round; stroke-linejoin:round; stroke-width:.5px;"></path><path d="M322.93769,444.9098c.8946-.2803,1.91031-.1443,2.6997,.3613" style="fill:none; stroke:#385941; stroke-linecap:round; stroke-linejoin:round; stroke-width:.5px;"></path><path d="M321.50159,446.7563c.8946-.2803,1.9103-.1443,2.6997,.3613" style="fill:none; stroke:#385941; stroke-linecap:round; stroke-linejoin:round; stroke-width:.5px;"></path></g><g><path d="M347.72249,460.545h2.6962c.61031,0,1.1746,.3086,1.5351,.801,1.555,2.1236,2.7235,1.3209,4.4147-.6756,1.0753-.1254,1.3646,1.1085,1.4524,1.4402l2.0158,7.3322c.175,.6123-.1793,1.2506-.7916,1.4257-.109,.0311-.222,.0461-.33509,.0442h-21.363c-3.39771,0-4.10181-3.424-2.70231-3.7409,6.2936-1.3907,10.7501-3.2427,12.69531-5.0735,.36079-.3207-.00961-.5603,.38249-1.5533Z" style="fill:#263238;"></path><path d="M343.70219,463.0436c.8511-.0205,1.69781-.1296,2.5262-.3256,.0778-.028,.1182-.1137,.0904-.1915-.0152-.042-.0483-.0752-.0904-.0902-.3785-.1849-3.7497-1.7605-4.5947-1.1619-.1585,.1031-.244,.2878-.2201,.4753,.0042,.3494,.174,.6761,.4578,.8802,.5504,.3296,1.192,.4745,1.8308,.4137Zm1.9981-.5282c-.9947,.185-2.8431,.4314-3.6089-.1408-.1986-.1562-.3205-.3903-.3346-.6426-.0157-.0792,.0194-.1599,.088-.2024,.4666-.3257,2.4559,.3697,3.8555,.9858Z" style="fill:#385941;"></path><path d="M346.19329,462.7266c.0344,.0104,.0711,.0104,.1055,0,.045-.0392,.0623-.1013,.044-.1583,0-.1408-.7921-3.4593-2.6406-3.248-.4578,.0616-.5897,.2816-.6074,.4664-.1144,.8803,2.0069,2.5439,3.0191,2.9665l.0794-.0266Zm-2.3062-3.1422c1.1706,0,1.8484,1.9364,2.0773,2.711-1.1003-.581-2.6407-1.9629-2.5439-2.4998,0-.0441,0-.1672,.3433-.2025l.1233-.0087Z" style="fill:#385941;"></path><path d="M345.85059,462.6258c.9288,.1268,1.7902,.6817,2.2897,1.475" style="fill:none; stroke:#385941; stroke-linecap:round; stroke-linejoin:round; stroke-width:.5px;"></path><path d="M344.17469,463.8873c.9288,.1267,1.7904,.6817,2.2899,1.4749" style="fill:none; stroke:#385941; stroke-linecap:round; stroke-linejoin:round; stroke-width:.5px;"></path><path d="M342.08979,464.9479c.9288,.1267,1.7904,.6817,2.2898,1.4749" style="fill:none; stroke:#385941; stroke-linecap:round; stroke-linejoin:round; stroke-width:.5px;"></path></g></g><g><path d="M379.22309,214.5236l-6.11709,3.4337,3.67089,20.7989-25.2015,6.3646,2.0837,14.5152s21.8604-6.0911,32.4881-11.5346c9.2179-4.7213-6.9241-33.5778-6.9241-33.5778Z" style="fill:#eec1bb;"></path><g><path d="M373.77879,217.9322s-2.9304-.1363-4.5432-1.948c-1.6129-1.8119-3.383-2.8295-4.4889-4.2593-1.1059-1.4299,1.28531-.9453,2.5052-.4301,1.2198,.5154,2.6079,1.087,2.8464,.108,.2391-.9787-2.1668-9.3038-1.6811-10.6232,.4853-1.3196,1.2956-.0946,1.2956-.0946,0,0-.52979-2.0377,.2203-2.4675,.1948-.1116,.82891-.0553,1.21591,.8354,.87069,2.004,2.48119,6.3037,2.48119,6.3037-.0975-.2448-1.7064-5.6941-1.8408-6.5416-.1758-1.1079,.3062-1.7199,.9519-1.8007,.9189-.1152,3.1441,6.573,3.4352,6.7895,0,0-1.41-3.8077-.6262-4.7095,.78371-.9018,1.802,1.4466,2.3065,3.6879,.4625,2.0546,1.9077,5.9642,2.17521,8.0985,.32979,2.6299-.03971,4.4698-2.15731,5.7711-2.11769,1.3012-4.0959,1.2804-4.0959,1.2804Z" style="fill:#eec1bb;"></path><path d="M369.73039,200.9659c.4657,1.6224,1.0053,3.2235,1.6165,4.7968" style="fill:none; opacity:.3; stroke:#000; stroke-linecap:round; stroke-linejoin:round; stroke-width:.25px;"></path><path d="M376.775,205.2637c-2.18011,.0302-4.34691,.7178-6.14561,1.9502" style="fill:none; opacity:.3; stroke:#000; stroke-linecap:round; stroke-linejoin:round; stroke-width:.25px;"></path><path d="M371.11979,211.7779c.8809-.1157,1.80021,.0854,2.55221,.5585,.75209,.4731,1.33139,1.2145,1.60849,2.0587" style="fill:none; opacity:.3; stroke:#000; stroke-linecap:round; stroke-linejoin:round; stroke-width:.25px;"></path></g></g></g></g><g id="freepik--Character_1--inject-1"><g><g><path d="M135.3585,287.2523c-1.6133,16.6631-6.9654,32.9537-15.5489,47.3268-1.4972,2.5071-3.1221,5.034-3.6611,7.904-.5389,2.87,.3009,6.2274,2.7994,7.739,2.0199,1.2221,4.5535,.9798,6.9054,1.1858,7.0383,.6164,12.8773,5.4051,19.0849,8.7791,9.9206,5.3923,21.675,7.3339,32.8028,5.4184,2.6301-.4528,5.3757-1.1983,7.2147-3.1323,2.2813-2.3991,2.6157-5.9952,2.828-9.2989,1.3534-21.0591,2.7068-42.1181,4.0602-63.1772l-56.4854-2.7447Z" style="fill:#385941;"></path><g style="opacity:.3;"><path d="M135.3585,287.2523c-1.6133,16.6631-6.9654,32.9537-15.5489,47.3268-1.4972,2.5071-3.1221,5.034-3.6611,7.904-.5389,2.87,.3009,6.2274,2.7994,7.739,2.0199,1.2221,4.5535,.9798,6.9054,1.1858,7.0383,.6164,12.8773,5.4051,19.0849,8.7791,9.9206,5.3923,21.675,7.3339,32.8028,5.4184,2.6301-.4528,5.3757-1.1983,7.2147-3.1323,2.2813-2.3991,2.6157-5.9952,2.828-9.2989,1.3534-21.0591,2.7068-42.1181,4.0602-63.1772l-56.4854-2.7447Z"></path></g><path d="M135.3585,287.2523c-1.6133,16.6631-6.9654,32.9537-15.5489,47.3268-1.4972,2.5071-3.1221,5.034-3.6611,7.904-.5389,2.87,.3009,6.2274,2.7994,7.739,2.0199,1.2221,4.5535,.9798,6.9054,1.1858,7.0383,.6164,12.8773,5.4051,19.0849,8.7791,9.9206,5.3923,21.675,7.3339,32.8028,5.4184,2.6301-.4528,5.3757-1.1983,7.2147-3.1323,2.2813-2.3991,2.6157-5.9952,2.828-9.2989,1.3534-21.0591,2.7068-42.1181,4.0602-63.1772l-56.4854-2.7447Z" style="fill:#385941;"></path><g style="opacity:.4;"><path d="M135.3585,287.2523c-1.6133,16.6631-6.9654,32.9537-15.5489,47.3268-1.4972,2.5071-3.1221,5.034-3.6611,7.904-.5389,2.87,.3009,6.2274,2.7994,7.739,2.0199,1.2221,4.5535,.9798,6.9054,1.1858,7.0383,.6164,12.8773,5.4051,19.0849,8.7791,9.9206,5.3923,21.675,7.3339,32.8028,5.4184,2.6301-.4528,5.3757-1.1983,7.2147-3.1323,2.2813-2.3991,2.6157-5.9952,2.828-9.2989,1.3534-21.0591,2.7068-42.1181,4.0602-63.1772l-56.4854-2.7447Z"></path></g></g><g><polygon points="196.8505 430.6791 200.64929 451.2928 207.51789 450.3251 208.838 429.4965 196.8505 430.6791" style="fill:#895555;"></polygon><g><path d="M212.34149,446.7846c.3251-1.2346,.425-2.2934-.9067-2.6038l-1.8857-.4397c-.7199-.1254-1.3178,.2652-1.9649,.5661-4.8943,2.2753-6.0017-1.9569-7.696-2.2502-2.1761-.3814-1.9885,6.8196-2.1557,7.1667l-3.786,7.6585c-.3242,.6382-.1597,2.1666,.5292,2.4854,.1226,.0566,.2529,.0963,.3869,.1177,3.8638,.6736,5.692,.9923,10.501,1.8306l14.7077,2.564c4.0093,.6989,4.9113-4.2016,3.3206-4.8383-7.1596-2.8259-9.6658-5.7661-11.8027-7.9693,0,0,.25281-2.3901,.7523-4.2877Z" style="fill:#385941;"></path><path d="M220.07129,463.8799l-14.7077-2.564c-4.809-.8383-6.6372-1.157-10.501-1.8306-.134-.0214-.2643-.0611-.3869-.1177-.4678-.2164-.688-.9882-.6833-1.6628l.1175-.6127,29.757,5.1875c-.59489,1.073-1.7695,1.9186-3.5956,1.6003Z" style="fill:#fff; opacity:.4;"></path><path d="M214.82069,454.4382c-.7284,.4661-1.3689,1.069-1.878,1.7679" style="fill:none; stroke:#263238; stroke-linecap:round; stroke-linejoin:round; stroke-width:.5px;"></path><path d="M212.74819,452.6275c-.6709,.4468-1.2707,1.0002-1.7696,1.6332" style="fill:none; stroke:#263238; stroke-linecap:round; stroke-linejoin:round; stroke-width:.5px;"></path><path d="M211.31489,451.1167c-.6074,.2043-1.1468,.6062-1.5164,1.1298" style="fill:none; stroke:#263238; stroke-linecap:round; stroke-linejoin:round; stroke-width:.5px;"></path><path d="M211.76049,448.5523c-.6759-.1114-1.3734-.09-2.0414,.0625" style="fill:none; stroke:#263238; stroke-linecap:round; stroke-linejoin:round; stroke-width:.5px;"></path><g style="opacity:.3;"><path d="M204.441,447.6479c-.16491,.7147-.55661,1.4618-1.25511,1.6848-.433,.1383-.9017,.0482-1.3471-.0428-1.3311-.2718-2.6619-.5439-3.99279-.8158l-.0096-.0413c.12-1.9369,.3614-6.6722,2.0194-6.3815,1.3055,.2259,2.2121,3.1266,5.0766,2.8253-.1977,1.0022-.3807,2.2911-.49139,2.7713Z"></path></g></g></g><g><polygon points="154.1541 432.3678 150.9724 455.7065 143.3661 456.0906 140.904 433.5912 154.1541 432.3678" style="fill:#895555;"></polygon><path d="M136.8896,466.5418l17.0134,.0006s.3711-.7147-.053-2.6169c-.0646-.2964-.1491-.6222-.2589-.9773-.0059-.0178-.0098-.0355-.0156-.0531-.1589-.5262-.3417-1.174-.5359-1.873-.7792-2.8482-1.3095-9.4004-1.3095-9.4004,0,0-3.2168-3.2297-6.5284-1.7163-2.9054,1.3269-2.4541,3.0097-2.4541,3.0097,0,0-.047,4.3456-2.2498,6.3124-1.3623,1.2152-2.7168,2.1555-3.3686,3.667-.1217,.2826-.2179,.5829-.2866,.9088-.0077,.0393-.0158,.0805-.0217,.1216-.1355,.7283-.1275,1.5823,.0687,2.6169Z" style="fill:#385941;"></path><g style="opacity:.4;"><path d="M153.85,463.9255c.4241,1.9022,.053,2.6169,.053,2.6169l-17.0134-.0006c-.1962-1.0346-.2042-1.8886-.0687-2.6169l17.0291,.0006Z" style="fill:#fff;"></path></g><path d="M143.6703,455.9847c.9568-.7455,2.2124-.6488,3.0731,.1908,.2315,.2256,.5867-.129,.3551-.3551-1.0742-1.0478-2.6079-1.1065-3.7833-.1908-.2546,.1984,.1031,.5517,.3551,.3551h0Z" style="fill:#263238;"></path><path d="M143.1899,457.5736c.9569-.7455,2.2124-.6488,3.0731,.1907,.2315,.226,.5869-.1288,.3551-.355-1.0742-1.0477-2.6079-1.1064-3.7833-.1907-.2546,.1982,.1029,.5513,.3551,.355h0Z" style="fill:#263238;"></path><path d="M142.7075,459.0345c.9569-.7456,2.2123-.6489,3.0732,.1907,.2313,.2258,.5867-.1289,.3549-.3551-1.0742-1.0477-2.6079-1.1062-3.7831-.1908-.2547,.1985,.1029,.5516,.355,.3552h0Z" style="fill:#263238;"></path></g><g><path d="M136.0675,299.498l33.6587,.2864,20.4873-.6206s20.0851,55.2958,21.3055,66.9769c1.22019,11.681,.17939,75.0509,.17939,75.0509l-15.06239,2.555s-7.0572-67.4525-8.3634-73.7727c-1.1385-5.5084-19.8105-33.3233-23.0241-42.3022-.3234,1.839-.6551,3.6858-.9933,5.5179-.8136,8.2787-2.182,37.7814-3.3172,47.6037,0,0-3.7075,53.0021-6.5704,69.2956l-14.992,.025c-1.9784-23.131-3.2456-104.3794-3.2456-104.3794l.0026-.0015c-1.1094-17.6464-.0651-46.235-.0651-46.235Z" style="fill:#263238;"></path><g style="opacity:.2;"><path d="M136.0675,299.498l33.6587,.2864,20.4873-.6206s20.0851,55.2958,21.3055,66.9769c1.22019,11.681,.17939,75.0509,.17939,75.0509l-15.06239,2.555s-7.0572-67.4525-8.3634-73.7727c-1.1385-5.5084-19.8105-33.3233-23.0241-42.3022-.3234,1.839-.6551,3.6858-.9933,5.5179-.8136,8.2787-2.182,37.7814-3.3172,47.6037,0,0-3.7075,53.0021-6.5704,69.2956l-14.992,.025c-1.9784-23.131-3.2456-104.3794-3.2456-104.3794l.0026-.0015c-1.1094-17.6464-.0651-46.235-.0651-46.235Z" style="fill:#fff;"></path></g><g style="opacity:.5;"><path d="M181.811,308.438c1.9037,6.2574,6.9937,11.2838,13.273,13.1115,.3388,.0987,.1947,.629-.1459,.5299-6.4649-1.8819-11.6972-7.0541-13.6568-13.4954-.1032-.3388,.4268-.4836,.5297-.146h0Z"></path><path d="M164.7131,308.4364c.3707,5.4745,.7326,10.9578,1.1033,16.4322,.0176,.3532,.5649,.3532,.5473,0-.1941-2.8078-.3795-5.6245-.5649-8.4412,1.351,1.042,2.9316-.2207,3.3732-1.6157,.724-2.2604,.4504-4.9447-.1147-7.2051-.0882-.3444-.6179-.1943-.5297,.1413,.3973,1.5893,.5651,3.2141,.4501,4.8476-.053,.83-.1326,1.7836-.521,2.5428-.4325,.8477-1.5275,1.5628-2.4017,.7946-.0971-.0794-.2031-.0883-.2914-.0442-.1677-2.4811-.3352-4.971-.5031-7.4523-.0175-.353-.565-.353-.5474,0Z"></path><path d="M148.6148,309.3686c.077,7.2571-5.5095,13.3345-12.7335,13.9044-.3464,.0274-.3445-.5124,0-.5395,6.9318-.5472,12.2676-6.4201,12.1938-13.365-.0038-.3474,.536-.3476,.5397,.0001h0Z"></path><path d="M145.0698,380.161c-2.2493,.83-4.6643,.8429-6.9228,.0384-.325-.1159-.1848-.6376,.1434-.5206,2.1773,.7758,4.4676,.7621,6.6361-.0383,.3263-.1206,.4669,.401,.1433,.5205h0Z"></path></g></g><path d="M178.4482,217.8035c-2.0641-.0863-6.86-.5536-13.2248-.5674-8.0398-.0176-23.1545,.2215-33.8407,2.3244l4.6008,66.9493s-.6403,8.8235-2.0183,17.6931c19.8505,6.7263,45.5512,4.2649,58.3864-3.1346-.141,.2876-.8413-6.9749-1.9102-17.6108-1.8838-18.7425-4.9124-47.9601-8.042-64.7945-.0834-.4153-3.4856-.8399-3.9512-.8595Z" style="fill:#385941;"></path><g><g><g><g><path d="M149.7648,219.0165s.3078-6.0285-4.0842-16.047c-.0011-.0112,.5153-.3267,.5143-.3381-.6079-1.4017-1.2284-2.6897-1.7997-3.8015-.0142-.0327-.0152-.0439-.0152-.0439l15.4078,6.9289c.1043,3.3751,2.1476,9.654,3.2187,12.2781,0,0,2.4472,4.686-4.0725,5.7636-4.7639,.7875-9.1692-4.7401-9.1692-4.7401Z" style="fill:#895555;"></path><path d="M160.6493,210.3659l-8.4438-.7684c1.0801,2.4523,3.7352,5.1777,9.4741,4.6727,0,0-.9451-2.7791-1.0303-3.9043Z" style="opacity:.2;"></path></g><g><path d="M143.3581,191.8788c2.1506,8.9064,3.184,13.973,8.5531,17.7445,8.0764,5.6731,18.2357-.278,18.7904-9.675,.4991-8.4581-3.1017-21.6022-12.5542-23.5343-9.3127-1.9037-16.9399,6.5584-14.7893,15.4648Z" style="fill:#895555;"></path><path d="M140.2953,181.2542c.3558-5.1814,12.7829-7.4417,16.7062-5.5224,.5865,.2866-6.1231,5.2938-5.7054,5.0517l-3.2553,1.8146c-.5555-.0239-1.4937,.7866-1.7429,2.5428,0,0,2.8439,13.7356-.3591,18.426-3.416-.9756-4.5702-6.4149-6.1397-9.4971-2.3383-4.5924-5.3786-11.3869,.4962-12.8156Z" style="fill:#263238;"></path><path d="M170.7016,199.9483s-7.7487-.2401-10.3566-.8984c0,0-2.769-.6307-6.3455-.8337-1.7915-.1018-6.434-4.2614-6.434-4.2614l-1.0708,.7219-.2459,9.5532s6.0358,9.3879,14.6892,7.3826c7.9632-1.8451,9.7685-9.404,9.7636-11.6642" style="opacity:.1;"></path><path d="M141.1336,200.0159c1.1311,2.1908,3.1713,3.6437,5.1152,4.214,2.9238,.858,3.4046-2.2578,2.6464-5.0494-.6821-2.5128-1.9791-5.4913-4.9401-5.1242-2.9172,.3618-4.1147,3.455-2.8215,5.9596Z" style="fill:#895555;"></path><path d="M156.4512,191.6348c.1634,.9215,.784,1.5769,1.3864,1.464,.602-.1129,.9577-.9516,.7943-1.8731-.1633-.9215-.784-1.577-1.3862-1.464-.6021,.113-.9578,.9514-.7945,1.8731Z" style="fill:#263238;"></path><path d="M166.0597,190.3458c.1633,.9217,.7838,1.5769,1.386,1.4641,.6022-.1131,.9579-.9514,.7946-1.8731-.1634-.9215-.7841-1.5769-1.3861-1.4639-.6024,.1131-.958,.9513-.7945,1.8729Z" style="fill:#263238;"></path><path d="M162.7463,190.7793s3.7292,4.0611,4.9948,5.7595c-1.0769,1.386-3.381,1.2439-3.381,1.2439l-1.6138-7.0034Z" style="fill:#561616;"></path><path d="M153.685,188.2485c.1492,.032,.3118-.0148,.4219-.1376,1.3124-1.458,2.911-1.239,2.927-1.2368,.2392,.0355,.4642-.129,.5023-.3676,.0377-.2385-.1266-.4607-.3645-.4968-.0843-.0129-2.0875-.2882-3.7152,1.5213-.1626,.1806-.1487,.4569,.031,.617,.058,.0522,.1261,.0851,.1975,.1005Z" style="fill:#263238;"></path><path d="M161.8611,201.2545c-1.4925,.2765-2.7842-.2634-4.1392-1.1712" style="fill:none; stroke:#263238; stroke-linecap:round; stroke-linejoin:round; stroke-width:.75px;"></path></g><path d="M142.7486,197.1614c.2674-.6021,.9722-.9309,1.6295-.8877,.6572,.0432,1.26,.4007,1.7369,.8548,.5722,.5454,.9989,1.2426,1.2237,2.0006" style="fill:none; opacity:.2; stroke:#000; stroke-linecap:round; stroke-linejoin:round; stroke-width:.5px;"></path></g><path d="M169.0747,186.172c.0771-.0316,.146-.0854,.1967-.1599,.1363-.2007,.0866-.4745-.1119-.6108-1.9907-1.3688-3.8498-.5946-3.9376-.5707-.2226,.0942-.329,.3517-.2374,.5755,.0913,.2231,.3442,.3283,.5661,.2373,.0762-.0354,1.5162-.6134,3.1139,.4853,.125,.0861,.2793,.097,.4102,.0433Z" style="fill:#263238;"></path></g><path d="M137.7544,177.6675c.3483-2.1304,2.8985-2.9987,4.954-2.9039-.4899-2.4559,2.4989-4.3989,4.536-4.6575,2.1221-.2692,3.0143,.4537,3.0143,.4537-.1576,.0605,.443-1.3267,.8599-1.9053,1.5396-2.1368,4.3473-3.1568,6.8298-2.4814,2.4824,.6754,4.4948,3.0069,4.8948,5.6714,1.0967-1.5445,3.4514-1.8671,4.9097-.6723,1.4581,1.1946,1.746,3.6821,.6001,5.1862,1.5645-.1517,3.119,1.2746,3.1923,2.9292,.0733,1.6545-1.3494,3.1986-2.9219,3.1711,.1977,1.8437,.3651,4.158,.5629,6.0016l-3.5083-6.3343c-1.3291-.2474-1.6595-.7831-2.1315-2.1167-.6499,1.8734-2.1221,1.9641-4.0075,2.1901-1.8856,.226-3.8665-.7433-4.9291-2.4113-.6849,1.9575-2.3082,3.6189-4.2769,3.8843-1.9688,.2652-4.1361-1.159-4.4553-3.2269-.8786,1.9492-3.2196,3.0034-5.1808,2.3329-1.961-.6707-3.2907-2.9802-2.9425-5.1109Z" style="fill:#263238;"></path></g><g><path d="M108.7243,207.0753s5.0689-29.6291,5.2736-29.6291l-8.1483-2.4859s-14.4832,35.0057-10.433,41.0484c4.0501,6.0425,40.2124,22.2977,40.2124,22.2977l6.3396-15.3343-33.2443-15.8968Z" style="fill:#895555;"></path><path d="M148.3613,218.0981l-9.6799-.5502c-7.0539-2.9199-25.2346-9.4136-25.2346-9.4136l-10.2222,20.1439,34.3025,13.2822,10.8342-23.4623Z" style="fill:#385941;"></path><path d="M113.9994,178.2466s6.7855-3.2527,7.1082-4.843c.3226-1.5906-.1892-2.8839-.1892-2.8839,0,0,6.5756-10.7594,4.9031-11.5098-.9051-.406-2.9523,1.9738-5.9903,7.1044,0,0-1.0493-2.9997-2.8164-1.8261,0,0-.9715-2.2114-3.1715-1.0755,0,0-1.9107-1.0386-3.1615,.2084-1.2507,1.247-4.7442,7.1605-5.3069,10.6086-.5628,3.4481,6.1213,5.5722,6.1213,5.5722l2.5032-1.3553Z" style="fill:#895555;"></path><path d="M121.058,170.9911c-.6268-1.0209-1.7177-2.5737-2.3445-3.5947-.2308-.376-.6604-1.3273-1.0707-1.4899-.6731-.2664-1.0983-.0829-1.4683,.5393-.6859,1.1531-.0386,3.4221,.9071,4.3737-1.0392,.0513-2.7033,.468-3.585,1.0204-.882,.5523-1.5601,1.5056-1.5739,2.546" style="fill:none; opacity:.3; stroke:#000; stroke-linecap:round; stroke-linejoin:round; stroke-width:.5px;"></path></g><g><g><path d="M229.85969,216.4492c-.0415,.3929-14.0378,30.5147-14.0378,30.5147l-17.6664-15.4118s-7.1119,15.4539-6.66349,15.4737c.4482,.0199,24.08259,23.4905,31.50379,14.8833,7.42121-8.6073,15.3634-40.9062,15.3634-40.9062l-8.4995-4.5537Z" style="fill:#895555;"></path><path d="M229.61629,217.0374s-1.8122-7.3033-.7914-8.5648c1.02111-1.2614,2.3442-1.6903,2.3442-1.6903,0,0,4.1101-11.921,5.7535-11.1091,.8893,.4393,.3577,3.5334-1.6642,9.1425,0,0,2.9812-1.1007,3.2014,1.009,0,0,2.3236-.6588,2.8486,1.7609,0,0,2.0174,.812,1.8522,2.5705-.1652,1.7583-2.5009,8.2175-4.8014,10.8468-2.3006,2.6294-8.1943-1.1723-8.1943-1.1723l-.5486-2.7932Z" style="fill:#895555;"></path><path d="M230.71679,206.9749c1.1864-.1668,3.0783-.3141,4.2646-.481,.437-.0615,1.4441-.3358,1.83061-.123,.634,.3494,.76319,.7942,.519,1.4757-.45241,1.263-2.61421,2.2085-3.95,2.0851,.622,.8341,1.36019,2.3827,1.49569,3.4143,.1357,1.0316-.16769,2.1615-.9611,2.8346" style="fill:none; opacity:.3; stroke:#000; stroke-linecap:round; stroke-linejoin:round; stroke-width:.5px;"></path><path d="M242.27239,211.704c-.11939,.3735-.2422,.754-.4713,1.0723-.229,.3182-.5862,.5698-.9783,.5715-.6257,.0026-1.0883-.6117-1.2439-1.2178-.2153-.8372-.0356-1.7672,.4762-2.4638-.2717,.6048-.6779,1.1697-1.247,1.5102-.5689,.3404-1.3173,.4226-1.8968,.1001-.57929-.3224-.907-1.0909-.6358-1.6962" style="fill:none; opacity:.3; stroke:#000; stroke-linecap:round; stroke-linejoin:round; stroke-width:.5px;"></path></g><path d="M178.5311,218.3998c-4.9042,5.4116-3.7028,18.3079,19.4367,40.1046l11.0681-17.9237c-5.0165-5.7249-8.8643-8.2389-15.91689-14.8249-11.0827-10.1721-14.5879-7.356-14.5879-7.356Z" style="fill:#385941;"></path></g><g><path d="M135.9835,286.5098c.8931-.9685,31.8748,6.9242,31.8748,6.9242l-.291,3.3168-32.4004-1.667s-3.5957-3.7891,.8166-8.574Z" style="fill:#385941;"></path><path d="M167.8583,293.434l22.4836-10.9654s7.8156,3.9588,2.2715,12.3101c-.7456,1.1231-25.0461,1.9721-25.0461,1.9721l.291-3.3168Z" style="fill:#385941;"></path><path d="M172.9572,294.5414c0,2.816-2.2829,5.0988-5.0989,5.0988s-5.0988-2.2828-5.0988-5.0988,2.2829-5.0988,5.0988-5.0988,5.0989,2.2828,5.0989,5.0988Z" style="fill:#385941;"></path><path d="M166.593,296.0953c-4.5973,3.3359-7.6279,8.744-8.0731,14.4065-.4452,5.6626,1.7029,11.4779,5.7223,15.4913,3.1534-.6384,6.3068-1.2767,9.4602-1.9151-5.3341-7.9239-7.4651-17.9399-5.8186-27.349" style="fill:#385941;"></path><path d="M171.5133,296.8272s11.7021,17.9212,17.6146,19.1218l-8.5642,7.325s-12.1727-6.4939-12.7054-25.3398l3.655-1.107Z" style="fill:#385941;"></path><g style="opacity:.4;"><path d="M135.9835,286.5098c.8931-.9685,31.8748,6.9242,31.8748,6.9242l-.291,3.3168-32.4004-1.667s-3.5957-3.7891,.8166-8.574Z"></path><path d="M167.8583,293.434l22.4836-10.9654s7.8156,3.9588,2.2715,12.3101c-.7456,1.1231-25.0461,1.9721-25.0461,1.9721l.291-3.3168Z"></path><path d="M172.9572,294.5414c0,2.816-2.2829,5.0988-5.0989,5.0988s-5.0988-2.2828-5.0988-5.0988,2.2829-5.0988,5.0988-5.0988,5.0989,2.2828,5.0989,5.0988Z"></path><path d="M166.593,296.0953c-4.5973,3.3359-7.6279,8.744-8.0731,14.4065-.4452,5.6626,1.7029,11.4779,5.7223,15.4913,3.1534-.6384,6.3068-1.2767,9.4602-1.9151-5.3341-7.9239-7.4651-17.9399-5.8186-27.349"></path><path d="M171.5133,296.8272s11.7021,17.9212,17.6146,19.1218l-8.5642,7.325s-12.1727-6.4939-12.7054-25.3398l3.655-1.107Z"></path></g></g></g></g></svg>
